<?xml version="1.0" encoding="UTF-8"?>
<svg id="Ebene_1" data-name="Ebene 1" xmlns="http://www.w3.org/2000/svg" version="1.1" viewBox="0 0 378.3 44.4">
  <defs>
    <style>
      .cls-1 {
        fill: #38352c;
        stroke-width: 0px;
      }
    </style>
  </defs>
  <path class="cls-1" d="M17.3.9c0,1.9-.2,4.2-.8,7l-7.4,35.1H0L7.4,8.3c.3-1.4.5-2.4.6-3.5.1-1.1.2-2.2.2-3.3L17.3.2v.6ZM21.5,26.5l5.1,16.5h-10l-4.1-16.2,7.5-14.3h10.3l-8.8,13.9Z"/>
  <path class="cls-1" d="M45,.8c0,1.9-.2,4.3-.8,7.1l-4.7,22c-.5,2.5-.8,4.1-.8,5.1s.5,1.7,1.5,1.7.7,0,1.1-.2l.2,6.3c-1.3.5-3.8,1-6.3,1-4.5,0-6.2-1.9-6.2-5s.4-4.1.8-6.2l5.2-24.3c.5-2.4.8-4.4.8-6.3v-.6L45,.2v.6Z"/>
  <path class="cls-1" d="M67.7,26.1c-2,3-5.9,4.7-13.2,4.7s-.9,0-1.4,0c0,.5-.1.9-.1,1.4,0,2,.5,4.5,3.4,4.5s5-1,7.7-2.8l2.1,5.8c-3,2.4-6.8,4.1-11.4,4.1-7,0-10.9-3.5-10.9-11s2.5-14.2,7.4-18.1c2.2-1.8,4.8-2.8,8-2.8,5.7,0,9.9,2.5,9.9,8.3s-.4,4.4-1.5,6ZM58.8,18.2c-2.3,0-3.5,2.9-4.4,6.1.4,0,.9,0,1.2,0,3.1,0,4.5-.8,5.1-2.1.2-.5.4-1.1.4-1.8,0-1.6-.9-2.3-2.3-2.3Z"/>
  <path class="cls-1" d="M86.6,19.2h-4l-2.7,12.7c-.3,1.4-.5,2.5-.5,3.2,0,1.4.8,1.9,1.8,1.9s1.9-.2,2.7-.5v5.5c-2,1.1-4.6,1.8-7.2,1.8s-6.8-1-6.8-5.2.2-3.1.6-5.1l3.1-14.3h-2.2l1.4-6.5h2.3c.6-3,1.4-5.7,2.1-7.7l8.9-1.3c-1,3.2-1.7,6.2-2.2,9h4.8l-2.1,6.5Z"/>
  <path class="cls-1" d="M103.3,19.2h-4l-2.7,12.7c-.3,1.4-.5,2.5-.5,3.2,0,1.4.8,1.9,1.8,1.9s1.9-.2,2.7-.5v5.5c-2,1.1-4.6,1.8-7.2,1.8s-6.8-1-6.8-5.2.2-3.1.6-5.1l3.1-14.3h-2.2l1.4-6.5h2.3c.6-3,1.4-5.7,2.1-7.7l8.9-1.3c-1,3.2-1.7,6.2-2.2,9h4.8l-2.1,6.5Z"/>
  <path class="cls-1" d="M128.1,26.1c-2,3-5.9,4.7-13.2,4.7s-.9,0-1.4,0c0,.5-.1.9-.1,1.4,0,2,.5,4.5,3.4,4.5s5-1,7.7-2.8l2.1,5.8c-3,2.4-6.8,4.1-11.4,4.1-7,0-10.9-3.5-10.9-11s2.5-14.2,7.4-18.1c2.2-1.8,4.8-2.8,8-2.8,5.7,0,9.9,2.5,9.9,8.3s-.4,4.4-1.5,6ZM119.1,18.2c-2.3,0-3.5,2.9-4.4,6.1.4,0,.9,0,1.2,0,3.1,0,4.5-.8,5.1-2.1.2-.5.4-1.1.4-1.8,0-1.6-.9-2.3-2.3-2.3Z"/>
  <path class="cls-1" d="M148.6,20.8c-.8-.5-1.5-.8-2.7-.8s-2.7.9-3.5,2.2l-4.4,20.8h-9l4.5-21.3c.4-1.8.7-3.9.7-5.7s0-1.7-.2-2.5l7.8-1.7c.2.4.3,1,.4,1.7.1.9.2,1.9.2,2.5,1.5-2.2,3.4-4.4,6.3-4.4s2.6.5,3.4,1.1l-3.5,8.1Z"/>
  <path class="cls-1" d="M169.4,20.3c-1.7-1.1-3.5-1.8-5.6-1.8s-2.9.9-2.9,2.4.9,1.9,2.2,2.5l2.9,1.3c2.6,1.2,4.7,3.1,4.7,7.6,0,7.8-6.6,11.5-13.3,11.5s-8-1.2-11.2-3.6l4.1-6c2.4,1.8,5,2.8,7.6,2.8s3.4-.8,3.4-2.5-.9-2-2.2-2.6l-3.1-1.5c-2.5-1.2-4.9-3-4.9-7.3,0-6.9,5.2-11.3,12.2-11.3s7.4.9,10,2.7l-3.7,5.8Z"/>
  <path class="cls-1" d="M192.3,21.1c-.8-1.1-1.8-2.1-3.5-2.1s-3,1.7-3.9,3.9c-1.4,3.3-2.1,7.8-2.1,10s.8,3.6,2.4,3.6,3.4-1.1,5.1-2.5l2.8,5.4c-2.5,2.4-5.5,4.4-10.5,4.4s-9.4-3.7-9.4-10.7,1.4-11.2,4.4-15.2c2.7-3.7,6.6-6,11.9-6s5.8,1.3,8,3.8l-5.1,5.5Z"/>
  <path class="cls-1" d="M223.4,19.6l-5,23.4h-8.9l4.2-19.9c.1-.5.2-1,.2-1.5,0-1-.4-1.8-1.7-1.8s-2.4.9-3.4,2.1l-4.5,21.2h-9l7.4-34.8c.4-1.8.8-3.8.8-6.1v-.8l9.1-1.1c0,.4,0,.8,0,1.2,0,1.8-.4,4-.9,6.5l-.8,3.7c-.2,1.2-.4,1.9-.6,2.5,1.4-1.2,4.2-2.3,7.1-2.3,4.1,0,6,2.4,6,5.7s0,1.4-.2,2.1Z"/>
  <path class="cls-1" d="M249.6,33.8c-.2,1.1-.4,2.1-.4,3.1,0,1.7.3,3.1.7,4.3l-8.4,3.2c-.4-.9-.8-3.1-.9-3.7-1.8,1.9-4.5,3.1-7.3,3.1-4.1,0-7.1-1.2-7.1-5.8s.1-3.4.9-7l3.8-17.7,9.3-1.4-4.5,21.2c-.1.4-.1.8-.1,1.2,0,1.1.4,1.8,1.7,1.8s2.4-.8,3.4-2.1l4.4-20.8,9.3-1.4-4.7,21.9Z"/>
  <path class="cls-1" d="M282,19.6l-5,23.4h-8.9l4.2-19.9c.1-.5.2-1,.2-1.5,0-1-.4-1.8-1.7-1.8s-2.4.9-3.4,2.1l-4.5,21.2h-9l7.4-34.8c.4-1.8.8-3.8.8-6.1v-.8l9.1-1.1c0,.4,0,.8,0,1.2,0,1.8-.4,4-.9,6.5l-.8,3.7c-.2,1.2-.4,1.9-.6,2.5,1.4-1.2,4.2-2.3,7.1-2.3,4.1,0,6,2.4,6,5.7s0,1.4-.2,2.1Z"/>
  <path class="cls-1" d="M308,26.1c-2,3-5.9,4.7-13.2,4.7s-.9,0-1.4,0c0,.5-.1.9-.1,1.4,0,2,.5,4.5,3.4,4.5s5-1,7.7-2.8l2.1,5.8c-2.9,2.4-6.8,4.1-11.4,4.1-7,0-10.9-3.5-10.9-11s2.5-14.2,7.4-18.1c2.2-1.8,4.8-2.8,8-2.8,5.7,0,9.9,2.5,9.9,8.3s-.4,4.4-1.5,6ZM299,18.2c-2.3,0-3.5,2.9-4.4,6.1.4,0,.9,0,1.2,0,3.1,0,4.5-.8,5.1-2.1.2-.5.4-1.1.4-1.8,0-1.6-.9-2.3-2.3-2.3Z"/>
  <path class="cls-1" d="M314.2,44c-3.2,0-5.7-2.5-5.7-5.7s2.5-5.7,5.7-5.7,5.7,2.5,5.7,5.7-2.5,5.7-5.7,5.7Z"/>
  <path class="cls-1" d="M347.4,35.6c-.6,2.7-.9,4.7-.9,6.2s0,.9,0,1.2h-7.7c-.1-.7-.2-1.5-.2-2.2-1.4,1.5-3,3-6.1,3-5.3,0-8-4.1-8-10.2s1.7-11.7,4.9-16c2.5-3.4,6-5.7,10.4-5.7s3.1.5,3.8,1.1c0-.9.2-2.7.6-4.8l1.7-8,8.7,1.2-7.3,34.3ZM339.8,19.1c-1.5,0-2.7,1.3-3.5,3.1-1.4,2.9-2,7.1-2,10s.5,3.8,2.1,3.8,1.8-.6,2.2-1.2l3.1-14.7c-.1-.6-1-1.1-1.8-1.1Z"/>
  <path class="cls-1" d="M376.8,26.1c-2,3-5.9,4.7-13.2,4.7s-.9,0-1.4,0c0,.5-.1.9-.1,1.4,0,2,.5,4.5,3.4,4.5s5-1,7.7-2.8l2.1,5.8c-2.9,2.4-6.8,4.1-11.4,4.1-7,0-10.9-3.5-10.9-11s2.5-14.2,7.4-18.1c2.2-1.8,4.8-2.8,8-2.8,5.7,0,9.9,2.5,9.9,8.3s-.4,4.4-1.5,6ZM367.8,18.2c-2.3,0-3.5,2.9-4.4,6.1.4,0,.9,0,1.2,0,3.1,0,4.5-.8,5.1-2.1.2-.5.4-1.1.4-1.8,0-1.6-.9-2.3-2.3-2.3Z"/>
</svg>